<?xml version="1.0" standalone="no"?>
<svg xmlns:xlink="http://www.w3.org/1999/xlink" id="wave" style="transform:rotate(0deg); transition: 0.3s" viewBox="0 0 1440 490" version="1.1" xmlns="http://www.w3.org/2000/svg"><defs><linearGradient id="sw-gradient-0" x1="0" x2="0" y1="1" y2="0"><stop stop-color="rgba(242, 238, 251, 1)" offset="0%"/><stop stop-color="rgba(242, 238, 251, 1)" offset="100%"/></linearGradient></defs><path style="transform:translate(0, 0px); opacity:1" fill="url(#sw-gradient-0)" d="M0,245L60,261.3C120,278,240,310,360,285.8C480,261,600,180,720,171.5C840,163,960,229,1080,236.8C1200,245,1320,196,1440,179.7C1560,163,1680,180,1800,212.3C1920,245,2040,294,2160,326.7C2280,359,2400,376,2520,383.8C2640,392,2760,392,2880,334.8C3000,278,3120,163,3240,122.5C3360,82,3480,114,3600,106.2C3720,98,3840,49,3960,65.3C4080,82,4200,163,4320,179.7C4440,196,4560,147,4680,171.5C4800,196,4920,294,5040,318.5C5160,343,5280,294,5400,228.7C5520,163,5640,82,5760,73.5C5880,65,6000,131,6120,130.7C6240,131,6360,65,6480,89.8C6600,114,6720,229,6840,261.3C6960,294,7080,245,7200,212.3C7320,180,7440,163,7560,163.3C7680,163,7800,180,7920,155.2C8040,131,8160,65,8280,40.8C8400,16,8520,33,8580,40.8L8640,49L8640,490L8580,490C8520,490,8400,490,8280,490C8160,490,8040,490,7920,490C7800,490,7680,490,7560,490C7440,490,7320,490,7200,490C7080,490,6960,490,6840,490C6720,490,6600,490,6480,490C6360,490,6240,490,6120,490C6000,490,5880,490,5760,490C5640,490,5520,490,5400,490C5280,490,5160,490,5040,490C4920,490,4800,490,4680,490C4560,490,4440,490,4320,490C4200,490,4080,490,3960,490C3840,490,3720,490,3600,490C3480,490,3360,490,3240,490C3120,490,3000,490,2880,490C2760,490,2640,490,2520,490C2400,490,2280,490,2160,490C2040,490,1920,490,1800,490C1680,490,1560,490,1440,490C1320,490,1200,490,1080,490C960,490,840,490,720,490C600,490,480,490,360,490C240,490,120,490,60,490L0,490Z"/></svg>