<?xml version="1.0" standalone="no"?>
<svg xmlns:xlink="http://www.w3.org/1999/xlink" id="wave" style="transform:rotate(180deg); transition: 0.3s" viewBox="0 0 1440 490" version="1.1" xmlns="http://www.w3.org/2000/svg"><defs><linearGradient id="sw-gradient-0" x1="0" x2="0" y1="1" y2="0"><stop stop-color="rgba(242, 238, 251, 1)" offset="0%"/><stop stop-color="rgba(242, 238, 251, 1)" offset="100%"/></linearGradient></defs><path style="transform:translate(0, 0px); opacity:1" fill="url(#sw-gradient-0)" d="M0,245L26.7,253.2C53.3,261,107,278,160,285.8C213.3,294,267,294,320,277.7C373.3,261,427,229,480,245C533.3,261,587,327,640,343C693.3,359,747,327,800,277.7C853.3,229,907,163,960,130.7C1013.3,98,1067,98,1120,147C1173.3,196,1227,294,1280,334.8C1333.3,376,1387,359,1440,334.8C1493.3,310,1547,278,1600,269.5C1653.3,261,1707,278,1760,285.8C1813.3,294,1867,294,1920,261.3C1973.3,229,2027,163,2080,171.5C2133.3,180,2187,261,2240,285.8C2293.3,310,2347,278,2400,245C2453.3,212,2507,180,2560,171.5C2613.3,163,2667,180,2720,155.2C2773.3,131,2827,65,2880,65.3C2933.3,65,2987,131,3040,163.3C3093.3,196,3147,196,3200,196C3253.3,196,3307,196,3360,212.3C3413.3,229,3467,261,3520,285.8C3573.3,310,3627,327,3680,343C3733.3,359,3787,376,3813,383.8L3840,392L3840,490L3813.3,490C3786.7,490,3733,490,3680,490C3626.7,490,3573,490,3520,490C3466.7,490,3413,490,3360,490C3306.7,490,3253,490,3200,490C3146.7,490,3093,490,3040,490C2986.7,490,2933,490,2880,490C2826.7,490,2773,490,2720,490C2666.7,490,2613,490,2560,490C2506.7,490,2453,490,2400,490C2346.7,490,2293,490,2240,490C2186.7,490,2133,490,2080,490C2026.7,490,1973,490,1920,490C1866.7,490,1813,490,1760,490C1706.7,490,1653,490,1600,490C1546.7,490,1493,490,1440,490C1386.7,490,1333,490,1280,490C1226.7,490,1173,490,1120,490C1066.7,490,1013,490,960,490C906.7,490,853,490,800,490C746.7,490,693,490,640,490C586.7,490,533,490,480,490C426.7,490,373,490,320,490C266.7,490,213,490,160,490C106.7,490,53,490,27,490L0,490Z"/></svg>